<?xml version="1.0" standalone="no"?>
<!DOCTYPE svg PUBLIC "-//W3C//DTD SVG 20010904//EN"
 "http://www.w3.org/TR/2001/REC-SVG-20010904/DTD/svg10.dtd">
<svg version="1.0" xmlns="http://www.w3.org/2000/svg"
 width="1024.000000pt" height="1024.000000pt" viewBox="0 0 1024.000000 1024.000000"
 preserveAspectRatio="xMidYMid meet">
<metadata>
Created by potrace 1.14, written by Peter Selinger 2001-2017
</metadata>
<g transform="translate(0.000000,1024.000000) scale(0.100000,-0.100000)"
fill="#000000" stroke="none">
<path d="M4610 8933 c-14 -2 -50 -8 -80 -15 -30 -6 -59 -11 -65 -9 -5 1 -57 5
-114 8 -122 5 -204 -15 -285 -71 l-49 -34 -27 19 c-25 19 -29 19 -106 4 -90
-18 -216 -73 -257 -113 -25 -24 -36 -27 -95 -27 -80 0 -146 -29 -202 -87 -27
-27 -46 -38 -67 -38 -88 0 -344 -123 -438 -210 -22 -21 -72 -54 -112 -75 -41
-21 -97 -61 -130 -94 -61 -60 -103 -90 -103 -71 0 5 -5 10 -11 10 -5 0 -8 -4
-5 -8 3 -5 -1 -9 -9 -9 -10 0 -11 5 -4 18 11 22 11 29 0 29 -5 0 -14 -20 -20
-45 -6 -25 -15 -45 -19 -45 -13 0 -113 -90 -167 -150 -22 -25 -43 -44 -47 -42
-5 1 -8 -3 -8 -9 0 -5 -4 -7 -10 -4 -6 3 -7 -1 -4 -9 4 -11 0 -16 -11 -16 -9
0 -14 -4 -11 -9 3 -5 -6 -12 -19 -15 -14 -4 -23 -10 -20 -15 9 -16 -23 -20
-36 -5 -9 11 -9 18 -1 26 7 7 12 16 12 21 0 11 -22 -11 -44 -45 -16 -25 -16
-28 -3 -28 13 0 11 -5 -6 -22 -13 -13 -25 -23 -28 -23 -9 0 -64 -47 -64 -54 0
-4 -8 -15 -18 -25 -9 -10 -24 -30 -32 -45 -11 -22 -20 -27 -44 -25 -17 1 -28
-2 -25 -7 10 -17 13 -49 3 -49 -5 0 -9 -9 -9 -20 0 -11 -4 -20 -9 -20 -5 0
-11 -14 -15 -31 -3 -17 -10 -28 -15 -25 -5 3 -11 -3 -14 -15 -5 -19 -34 -24
-47 -8 -3 4 -13 -4 -23 -16 -12 -17 -14 -26 -5 -31 6 -4 8 -3 5 3 -4 6 0 14 9
17 24 9 31 7 14 -5 -12 -8 -12 -12 -2 -16 10 -4 10 -8 1 -19 -6 -8 -16 -11
-23 -7 -6 4 -5 -1 2 -10 18 -21 6 -63 -13 -47 -7 6 -15 7 -17 3 -3 -4 -3 -2
-1 5 1 8 -4 23 -12 35 -8 12 -15 17 -15 12 0 -6 -7 -2 -14 8 -12 15 -15 15
-26 2 -10 -12 -10 -15 4 -15 21 0 32 -26 17 -44 -12 -14 5 -36 31 -40 31 -4
37 -16 26 -53 -12 -43 -54 -113 -68 -113 -6 0 -9 -3 -7 -8 2 -7 -6 -27 -41
-112 -10 -24 -11 -23 -11 13 -1 23 3 36 9 32 6 -3 10 1 10 9 0 9 -6 15 -12 13
-7 -1 -13 5 -13 13 0 8 6 14 13 12 8 -1 11 2 7 8 -3 5 -1 10 5 10 6 0 8 5 5
10 -9 15 -25 12 -25 -5 0 -8 -6 -14 -12 -12 -9 1 -12 -8 -10 -28 13 -143 8
-180 -23 -169 -9 4 -15 0 -15 -9 0 -17 -26 -30 -43 -21 -7 3 -5 0 3 -8 19 -17
24 -104 6 -111 -8 -3 -13 -25 -15 -54 0 -27 -9 -74 -19 -104 -14 -45 -21 -54
-40 -53 -15 1 -22 -4 -22 -17 0 -10 -5 -21 -12 -25 -7 -5 -8 -3 -3 6 6 10 4
12 -9 7 -14 -6 -17 -3 -12 8 3 9 2 13 -4 10 -16 -10 -12 -35 6 -35 8 0 12 -4
9 -10 -3 -5 0 -7 8 -4 8 3 18 0 23 -7 4 -8 3 -10 -4 -5 -7 4 -12 2 -12 -3 0
-6 5 -11 11 -11 8 0 8 -5 -1 -15 -7 -8 -8 -15 -4 -15 5 0 9 -42 9 -94 0 -52
-3 -92 -7 -90 -3 2 -10 -1 -14 -7 -5 -8 -8 -8 -14 1 -5 8 -9 7 -13 -5 -4 -9
-3 -13 3 -10 6 3 10 1 10 -5 0 -6 5 -8 10 -5 15 10 29 -37 19 -64 -6 -13 -6
-28 -1 -35 5 -6 9 -18 10 -26 2 -117 6 -171 13 -176 10 -6 12 -114 3 -138 -8
-21 -31 -20 -38 2 -4 13 -4 13 -3 -3 1 -11 -2 -26 -6 -32 -6 -10 -2 -11 18 -3
21 8 26 7 22 -2 -2 -7 3 -19 12 -26 9 -8 11 -11 5 -8 -7 3 -15 -1 -18 -10 -3
-8 -2 -13 3 -10 15 10 20 -20 16 -102 -3 -69 -1 -83 16 -103 10 -12 19 -30 19
-39 0 -10 6 -33 14 -51 8 -19 17 -58 21 -87 4 -32 14 -57 24 -65 25 -17 29
-36 16 -75 -15 -44 -2 -108 28 -141 25 -27 187 -148 233 -173 27 -15 163 -57
182 -56 4 0 14 4 23 8 13 7 18 0 28 -39 7 -28 26 -63 44 -83 45 -47 150 -128
168 -128 8 0 42 -7 74 -16 33 -9 83 -17 110 -19 28 -2 53 -4 56 -4 3 -1 4 -34
1 -74 -5 -76 7 -117 42 -146 9 -8 16 -29 16 -47 0 -26 4 -34 18 -34 34 0 42
-20 21 -49 -45 -62 -28 -170 34 -199 18 -9 27 -21 27 -36 0 -43 95 -127 179
-160 116 -45 243 -40 355 14 l58 27 15 -36 c8 -20 28 -50 45 -68 l30 -31 -21
-30 c-83 -117 36 -254 224 -256 39 -1 49 -4 46 -16 -20 -83 -9 -130 45 -184
46 -45 83 -60 150 -58 116 2 223 41 372 135 101 64 232 121 232 101 0 -7 -53
-83 -79 -113 -12 -13 -21 -28 -21 -32 0 -4 -6 -14 -13 -21 -22 -23 -130 -191
-164 -256 -44 -84 -35 -139 26 -174 72 -41 133 33 331 397 18 33 44 79 57 103
l25 43 24 -25 c32 -31 64 -36 128 -22 88 21 182 81 188 119 2 16 8 21 23 17
11 -3 50 -5 88 -5 l67 0 0 -47 c0 -61 -7 -78 -35 -78 -12 0 -28 -7 -35 -15 -7
-9 -15 -13 -18 -11 -2 3 -13 1 -23 -5 -16 -8 -19 -22 -19 -84 0 -57 -3 -75
-14 -75 -15 0 -52 -49 -48 -63 1 -5 -5 -6 -15 -3 -10 2 -37 7 -59 11 -59 9
-90 46 -87 103 1 35 -1 43 -14 40 -20 -4 -52 -82 -52 -129 -1 -63 69 -111 185
-124 l62 -7 7 -45 c14 -95 113 -317 204 -458 32 -49 75 -124 96 -165 61 -122
79 -134 160 -105 71 25 82 21 89 -32 15 -108 62 -189 118 -208 25 -8 32 -16
34 -40 10 -134 14 -167 24 -184 20 -38 13 -50 -24 -44 -19 3 -46 3 -60 -1 -33
-8 -34 -44 -6 -118 38 -98 51 -119 93 -148 23 -16 49 -36 58 -45 29 -28 46
-18 53 30 4 25 11 45 17 45 5 0 9 7 9 15 0 8 3 14 8 14 4 -1 9 -1 12 1 3 1 15
3 27 6 26 5 49 -32 59 -93 3 -21 7 -39 7 -40 1 -1 14 1 29 4 17 3 31 15 38 33
20 49 37 44 56 -16 16 -51 18 -54 51 -54 32 0 33 1 28 32 -17 106 -28 167 -35
196 -5 19 -7 40 -4 48 15 50 15 50 38 12 13 -21 26 -35 31 -30 4 4 5 1 1 -6
-4 -7 -2 -19 4 -27 7 -8 9 -15 5 -15 -4 0 -2 -7 5 -15 28 -34 37 -4 10 31 -14
18 -13 18 8 0 12 -11 20 -21 17 -24 -3 -3 0 -11 6 -18 7 -8 6 -14 -2 -20 -8
-4 -9 -3 -5 4 5 8 2 10 -8 6 -12 -5 -13 -9 -3 -19 7 -7 14 -9 15 -4 9 24 32 3
62 -57 19 -36 45 -74 58 -84 24 -19 24 -19 94 16 l70 36 -5 66 c-7 85 -12 97
-50 121 -18 11 -52 42 -76 70 -31 35 -48 47 -56 41 -9 -7 -21 10 -44 60 -18
38 -36 82 -41 97 -4 15 -15 49 -23 76 -14 44 -14 48 3 57 9 5 37 12 61 15 43
6 44 6 24 -12 -19 -18 -27 -35 -28 -60 0 -7 -4 -13 -9 -13 -16 0 -7 -18 12
-23 14 -3 28 4 45 25 26 30 29 46 19 85 -8 31 -26 34 -89 18 -31 -8 -57 -15
-59 -15 -11 0 -28 111 -36 238 -10 155 -18 227 -27 252 -3 8 -7 35 -10 58 -2
24 -11 62 -19 84 -26 76 -10 80 40 10 54 -75 201 -162 334 -197 56 -15 95 -15
427 -1 218 9 360 40 475 105 54 30 174 117 215 156 17 15 46 38 65 50 53 34
140 124 140 146 0 10 6 19 14 19 29 0 70 46 102 117 99 214 94 412 -16 573
-16 25 -30 48 -30 53 0 4 18 7 41 7 32 0 46 -6 61 -25 11 -14 27 -25 37 -25
10 0 32 -7 49 -16 65 -32 94 -29 179 15 46 24 92 41 112 41 80 0 192 53 240
114 26 32 31 48 31 90 0 30 -6 60 -15 72 -22 30 -18 47 20 77 51 40 68 80 61
137 l-6 47 42 6 c70 9 94 69 84 205 -5 63 -3 88 8 105 8 12 18 39 21 59 4 20
13 39 20 42 13 5 30 67 39 144 3 24 7 46 10 50 23 39 26 264 4 347 -11 40 -11
57 -1 85 26 76 6 220 -43 309 -24 44 -24 49 -11 99 24 95 21 244 -7 355 -14
54 -34 113 -44 130 -11 18 -23 59 -27 92 -17 146 -104 350 -171 400 l-40 30 4
75 c5 88 -14 165 -57 231 -17 27 -33 69 -40 109 -6 35 -22 88 -37 118 -34 70
-125 167 -191 204 -42 23 -53 35 -53 55 0 51 -33 81 -100 93 -32 5 -35 9 -41
47 -9 68 -72 137 -150 162 -34 11 -36 15 -36 51 0 59 -24 91 -217 290 -63 65
-124 94 -180 87 -42 -6 -42 -6 -38 21 10 72 -179 228 -313 257 -49 11 -138 24
-149 22 -5 -1 -13 15 -16 35 -8 43 -54 99 -124 150 -38 27 -72 40 -131 53 -59
12 -85 22 -101 40 -27 31 -109 69 -194 90 -36 9 -81 24 -100 35 -68 36 -198
63 -273 55 -58 -5 -71 -4 -81 10 -16 22 -101 44 -151 38 -22 -2 -58 -12 -81
-23 -42 -18 -43 -18 -61 2 -72 80 -224 86 -324 13 -56 -42 -67 -43 -71 -7 -7
63 -146 91 -285 56 -60 -15 -64 -15 -91 4 -27 20 -108 32 -162 25z m-155
-5562 c-3 -5 -1 -12 5 -16 15 -9 12 -41 -5 -58 -8 -8 -11 -17 -8 -21 4 -3 1
-6 -5 -6 -7 0 -11 -3 -11 -7 3 -17 -2 -24 -11 -18 -8 5 -7 11 1 21 6 8 10 16
8 19 -2 2 -15 -12 -28 -32 l-23 -36 26 5 c14 3 26 3 26 1 0 -8 -130 -263 -153
-302 -13 -20 -29 -48 -36 -63 -17 -33 -47 -60 -83 -76 -26 -11 -28 -10 -28 14
0 21 -4 25 -20 21 -33 -9 -24 30 28 120 85 146 141 237 164 267 13 15 27 37
32 47 5 11 13 19 18 19 4 0 8 6 8 13 0 15 37 57 70 79 29 20 33 21 25 9z"/>
<path d="M2516 8214 c-7 -26 -1 -43 9 -32 3 3 7 15 10 26 6 32 -12 36 -19 6z"/>
<path d="M2340 8119 c0 -5 5 -7 10 -4 6 3 10 8 10 11 0 2 -4 4 -10 4 -5 0 -10
-5 -10 -11z"/>
<path d="M2210 7990 c0 -13 5 -20 13 -17 6 2 12 10 12 17 0 7 -6 15 -12 18 -8
2 -13 -5 -13 -18z"/>
<path d="M2182 7955 c-15 -33 -15 -42 0 -27 11 11 22 52 15 52 -2 0 -9 -11
-15 -25z"/>
<path d="M2134 7865 c-10 -8 -14 -14 -9 -15 15 0 40 18 34 24 -3 3 -14 -1 -25
-9z"/>
<path d="M1929 7708 c0 -2 -2 -11 -4 -21 -3 -15 -1 -16 11 -6 7 6 11 15 8 20
-5 9 -13 12 -15 7z"/>
<path d="M1557 7116 c-6 -14 0 -26 13 -26 3 0 6 9 7 20 2 23 -12 27 -20 6z"/>
<path d="M1500 7019 c0 -5 5 -7 10 -4 6 3 10 8 10 11 0 2 -4 4 -10 4 -5 0 -10
-5 -10 -11z"/>
<path d="M1300 6110 c0 -11 5 -20 11 -20 5 0 7 5 3 11 -3 6 0 15 7 20 11 7 10
9 -3 9 -11 0 -18 -8 -18 -20z"/>
<path d="M1313 5907 c-3 -5 0 -14 6 -20 8 -8 11 -8 11 2 0 7 5 9 10 6 6 -3 10
0 10 8 0 15 -28 19 -37 4z"/>
<path d="M1323 5803 c-1 -24 -1 -25 7 -8 11 26 12 35 2 35 -4 0 -8 -12 -9 -27z"/>
<path d="M1365 5799 c-4 -6 -5 -12 -2 -15 2 -3 7 2 10 11 7 17 1 20 -8 4z"/>
<path d="M1311 5763 c-1 -6 -4 -20 -7 -30 -5 -17 -5 -17 6 0 6 10 9 23 6 30
-3 9 -5 9 -5 0z"/>
</g>
</svg>
